<svg height="448pt" viewBox="0 0 448 448" width="448pt" xmlns="http://www.w3.org/2000/svg"><path d="m192 56h64c4.417969 0 8 3.582031 8 8v128c0 4.417969-3.582031 8-8 8h-64c-4.417969 0-8-3.582031-8-8v-128c0-4.417969 3.582031-8 8-8zm0 0"/><path d="m0 256h448v-248c0-4.417969-3.582031-8-8-8h-432c-4.417969 0-8 3.582031-8 8zm296-208c0-4.417969 3.582031-8 8-8s8 3.582031 8 8v80c0 4.417969 3.582031 8 8 8h72v-88c0-4.417969 3.582031-8 8-8s8 3.582031 8 8v160c0 4.417969-3.582031 8-8 8s-8-3.582031-8-8v-56h-72c-13.253906 0-24-10.746094-24-24zm-128 16c0-13.253906 10.746094-24 24-24h64c13.253906 0 24 10.746094 24 24v128c0 13.253906-10.746094 24-24 24h-64c-13.253906 0-24-10.746094-24-24zm-128-16c0-4.417969 3.582031-8 8-8s8 3.582031 8 8v80c0 4.417969 3.582031 8 8 8h72v-88c0-4.417969 3.582031-8 8-8s8 3.582031 8 8v160c0 4.417969-3.582031 8-8 8s-8-3.582031-8-8v-56h-72c-13.253906 0-24-10.746094-24-24zm0 0"/><path d="m448 296v-24h-448v24c0 4.417969 3.582031 8 8 8h432c4.417969 0 8-3.582031 8-8zm0 0"/><path d="m298.128906 415.6875c-28.480468-3.03125-50.097656-27.046875-50.128906-55.6875-.003906-15.066406 6.085938-29.496094 16.886719-40h-81.773438c10.71875 10.441406 16.800781 24.746094 16.886719 39.707031.082031 14.964844-5.84375 29.335938-16.449219 39.894531-9.011719 9.113282-20.921875 14.804688-33.679687 16.085938l-10.773438 32.3125h169.804688zm0 0"/></svg>